<?xml version="1.0" encoding="UTF-8" standalone="no"?>
<svg
   xmlns:dc="http://purl.org/dc/elements/1.1/"
   xmlns:cc="http://creativecommons.org/ns#"
   xmlns:rdf="http://www.w3.org/1999/02/22-rdf-syntax-ns#"
   xmlns:svg="http://www.w3.org/2000/svg"
   xmlns="http://www.w3.org/2000/svg"
   xmlns:sodipodi="http://sodipodi.sourceforge.net/DTD/sodipodi-0.dtd"
   xmlns:inkscape="http://www.inkscape.org/namespaces/inkscape"
   width="1600"
   height="400"
   viewBox="0 0 105.83333 26.458333"
   version="1.1"
   id="svg8"
   sodipodi:docname="mathcramdraft.svg"
   inkscape:version="1.0 (4035a4fb49, 2020-05-01)">
  <defs
     id="defs2">
    <inkscape:path-effect
       hide_knots="false"
       only_selected="false"
       apply_with_radius="true"
       apply_no_radius="true"
       use_knot_distance="true"
       flexible="false"
       chamfer_steps="1"
       radius="15"
       mode="F"
       method="auto"
       unit="px"
       satellites_param="F,0,0,1,0,3.96875,0,1 @ F,0,0,1,0,3.96875,0,1 @ F,0,0,1,0,3.96875,0,1 @ F,0,0,1,0,3.96875,0,1"
       lpeversion="1"
       is_visible="true"
       id="path-effect1229"
       effect="fillet_chamfer" />
    <inkscape:path-effect
       effect="fillet_chamfer"
       id="path-effect1225"
       is_visible="true"
       lpeversion="1"
       satellites_param="F,0,0,1,0,3.96875,0,1 @ F,0,0,1,0,3.96875,0,1 @ F,0,0,1,0,3.96875,0,1 @ F,0,0,1,0,3.96875,0,1"
       unit="px"
       method="auto"
       mode="F"
       radius="15"
       chamfer_steps="1"
       flexible="false"
       use_knot_distance="true"
       apply_no_radius="true"
       apply_with_radius="true"
       only_selected="false"
       hide_knots="false" />
    <inkscape:path-effect
       hide_knots="false"
       only_selected="false"
       apply_with_radius="true"
       apply_no_radius="true"
       use_knot_distance="true"
       flexible="false"
       chamfer_steps="1"
       radius="18"
       mode="F"
       method="auto"
       unit="px"
       satellites_param="F,0,0,1,0,4.7625,0,1 @ F,0,0,1,0,4.7625,0,1 @ F,0,0,1,0,4.7625,0,1 @ F,0,0,1,0,4.7625,0,1"
       lpeversion="1"
       is_visible="true"
       id="path-effect1219"
       effect="fillet_chamfer" />
    <inkscape:path-effect
       effect="fillet_chamfer"
       id="path-effect1203"
       is_visible="true"
       lpeversion="1"
       satellites_param="F,0,0,1,0,3.96875,0,1 @ F,0,0,1,0,3.96875,0,1 @ F,0,0,1,0,3.96875,0,1 @ F,0,0,1,0,3.96875,0,1"
       unit="px"
       method="auto"
       mode="F"
       radius="15"
       chamfer_steps="1"
       flexible="false"
       use_knot_distance="true"
       apply_no_radius="true"
       apply_with_radius="true"
       only_selected="false"
       hide_knots="false" />
    <filter
       inkscape:collect="always"
       style="color-interpolation-filters:sRGB"
       id="filter1209"
       x="-1.08e-05"
       width="1.0000216"
       y="-1.08e-05"
       height="1.0000216">
      <feGaussianBlur
         inkscape:collect="always"
         stdDeviation="9.2874024e-05"
         id="feGaussianBlur1211" />
    </filter>
  </defs>
  <sodipodi:namedview
     id="base"
     pagecolor="#ffffff"
     bordercolor="#666666"
     borderopacity="1.0"
     inkscape:pageopacity="0.0"
     inkscape:pageshadow="2"
     inkscape:zoom="0.71238679"
     inkscape:cx="113.74907"
     inkscape:cy="295.7405"
     inkscape:document-units="mm"
     inkscape:current-layer="layer1"
     inkscape:document-rotation="0"
     showgrid="false"
     inkscape:snap-nodes="true"
     inkscape:object-nodes="true"
     inkscape:snap-grids="true"
     inkscape:snap-to-guides="true"
     inkscape:window-width="1920"
     inkscape:window-height="1057"
     inkscape:window-x="-8"
     inkscape:window-y="-8"
     inkscape:window-maximized="1"
     showguides="false"
     inkscape:guide-bbox="true"
     units="px"
     scale-x="1">
    <sodipodi:guide
       position="36.48229,254.10992"
       orientation="0,-1"
       id="guide1191" />
    <sodipodi:guide
       position="43.217481,258.83392"
       orientation="0,-1"
       id="guide1193" />
    <sodipodi:guide
       position="64.822917,280.33125"
       orientation="0,-1"
       id="guide1251" />
    <inkscape:grid
       type="xygrid"
       id="grid1271" />
  </sodipodi:namedview>
  <metadata
     id="metadata5">
    <rdf:RDF>
      <cc:Work
         rdf:about="">
        <dc:format>image/svg+xml</dc:format>
        <dc:type
           rdf:resource="http://purl.org/dc/dcmitype/StillImage" />
        <dc:title />
      </cc:Work>
    </rdf:RDF>
  </metadata>
  <g
     inkscape:groupmode="layer"
     id="layer5"
     inkscape:label="bg"
     style="display:inline" />
  <g
     inkscape:groupmode="layer"
     id="layer3"
     inkscape:label="square"
     style="display:inline;filter:url(#filter1209)" />
  <g
     inkscape:label="Layer 1"
     inkscape:groupmode="layer"
     id="layer1"
     style="display:inline;opacity:1">
    <path
       id="rect1131"
       style="fill:#000000;fill-opacity:1;stroke-width:0.119504"
       d="m 45.420671,3.0856755 c -0.366892,0.012824 -0.948769,0.1321742 -1.547709,0.4749064 -0.442444,0.2531806 -0.894631,0.5029904 -1.174605,0.8500774 -0.214148,0.4420359 -0.283435,0.7770339 -0.487309,1.3699421 -1.020972,2.9691864 -1.83144,4.3873346 -3.225618,5.5154756 -0.388964,0.314742 -1.223968,0.512127 -1.635559,0.595828 l 1.47801,-5.5156521 c 0.212701,-0.831769 0.481803,-1.7001127 0.627351,-2.4442946 0.0104,-0.054732 -0.01646,-0.1096708 -0.06615,-0.1348756 l -0.06976,-0.03514 c -0.01868,-0.00966 -0.03942,-0.014433 -0.06046,-0.013952 l -5.3e-4,-5.292e-4 c -0.366892,0.012824 -1.006647,0.123906 -1.605586,0.4666383 -0.442445,0.2531808 -0.894631,0.5029903 -1.174605,0.8500774 -0.120938,0.2496343 -0.225494,0.4501972 -0.451136,0.707967 -0.338187,0.3863374 -0.70453,0.6120323 -1.247611,0.9785331 -0.879088,0.5932567 -2.32502,1.0087425 -3.182236,1.5006849 -1.181198,0.6778705 -1.868818,1.712132 -1.871721,2.8809608 -0.0033,1.332505 1.038434,1.898022 1.609723,2.164209 0.438957,0.204526 1.043741,0.285605 1.452623,0.09767 0.226042,-0.103896 0.41456,-0.257558 0.506947,-0.449585 0.119076,-0.247499 0.09072,-0.314682 -0.05736,-0.467153 -0.122555,-0.126199 -0.455596,-0.123489 -0.674894,-0.39791 -0.237627,-0.297363 -0.280603,-0.526135 -0.280603,-0.953947 0,-0.792607 0.451098,-1.5770542 1.396298,-2.2008994 0.765302,-0.5051107 1.553068,-0.7542847 2.030368,-0.8702304 l -1.877473,6.8670938 c -0.08169,0.304845 -0.535225,1.571844 -0.695563,1.918229 -0.435935,0.767559 -1.147172,1.375174 -2.15284,1.826244 -0.687417,0.260363 -1.263759,0.263877 -1.839021,0.42337 -0.334174,0.09265 -0.619932,0.308324 -0.82894,0.523002 -0.193855,0.209037 -0.299722,0.462333 -0.299722,0.733806 10e-6,0.528923 0.04277,0.930341 0.142626,1.221632 0.04991,0.145653 0.114414,0.265871 0.207222,0.356049 0.09281,0.09019 0.219061,0.144177 0.347784,0.144177 0.646753,0 1.29762,-0.189545 2.14326,-0.643326 0.872244,-0.468059 1.428699,-0.853631 2.117833,-1.449684 1.269122,-1.097704 2.213009,-2.273266 2.890779,-3.56929 0.270436,-0.522843 0.710766,-1.817005 0.909651,-2.458135 0.333833,0.11331 0.829887,0.30598 1.104323,0.552939 0.177493,0.159721 0.456674,0.415679 0.507463,0.814938 0.175027,1.375926 0.163987,2.679726 0.296707,4.241601 0.04717,0.555117 0.228693,1.264645 0.527617,1.734778 0.344387,0.541637 1.175043,1.098899 1.637109,1.451073 0.195863,0.149283 0.466193,0.211397 0.680061,0.238747 0.523547,0 1.053706,-0.21294 1.813878,-0.867685 0.196887,-0.16958 0.310808,-0.335053 0.311091,-0.492993 -0.02622,-0.223044 -0.151682,-0.357159 -0.344164,-0.432015 -0.457801,-0.178038 -1.215046,-0.42832 -1.558044,-0.781346 -0.327057,-0.336616 -0.640437,-0.966285 -0.691219,-1.432869 -0.150177,-1.379837 -0.171167,-2.871283 -0.487635,-4.244375 -0.126114,-0.547171 -0.456536,-0.928722 -0.916742,-1.250463 -0.273635,-0.191307 -0.700884,-0.341466 -1.131197,-0.455787 0.392496,-0.0759 1.163696,-0.26539 1.778704,-0.690914 0.912341,-0.631246 1.804823,-1.43115 2.449981,-2.3337072 0.949301,-1.3280469 1.814227,-3.0707645 2.212243,-4.2850602 0.29742,-0.9073978 0.478043,-1.7906431 0.65319,-2.4442951 0.0104,-0.054732 -0.01646,-0.1096709 -0.06615,-0.1348756 l -0.06976,-0.03514 c -0.01868,-0.00966 -0.03942,-0.014433 -0.06046,-0.013951 z"
       sodipodi:nodetypes="cscsscccccccscsssssssssssccccscscssssccssssscscssssscsssccccc" />
    <path
       id="path1075"
       style="font-style:normal;font-variant:normal;font-weight:normal;font-stretch:normal;font-size:11.2889px;font-family:Norican;-inkscape-font-specification:Norican;fill:#000000;fill-opacity:1;stroke-width:0.409051"
       inkscape:label="path1075"
       d="m 18.291084,8.7070867 c -0.231738,0.00815 -0.534937,0.1124929 -0.925523,0.3059244 -0.361032,0.1770883 -0.589391,0.3411326 -0.713653,0.5141807 -0.0066,0.0036 -0.01273,0.00812 -0.0181,0.013441 l -0.01085,0.010848 0.0026,0.00212 c -0.0011,0.00185 -0.004,0.00341 -0.0052,0.00516 -0.0016,0.00238 -0.0029,0.00482 -0.0041,0.00722 -0.906267,1.8381372 -1.678366,3.3673572 -2.316655,4.5852502 -0.111559,0.209177 -0.178268,0.344834 -0.243914,0.479039 0.02323,-0.405289 0.05912,-1.104906 0.11679,-2.295467 v -5.29e-4 c 0.06606,-1.291685 0.163729,-2.4251551 0.29197,-3.3997927 0.0044,-0.033549 -0.01307,-0.06617 -0.04341,-0.081132 -0.02119,-0.01061 -0.03681,-0.018971 -0.04496,-0.02376 -0.0013,-7.937e-4 -5.29e-4,-5.291e-4 -0.0016,-0.00106 -0.01468,-0.014208 -0.03433,-0.022172 -0.05478,-0.022225 -0.334238,0 -0.65686,0.093049 -0.9617,0.2759525 -0.300818,0.1790488 -0.532357,0.4141338 -0.68988,0.7022835 -7.94e-4,0.00132 -0.0013,0.00273 -0.0021,0.00413 -0.25332,0.5396727 -0.756696,1.5965877 -1.509986,3.1693137 -0.748904,1.571231 -1.2718033,2.6772 -1.5699305,3.321243 -0.211179,0.37183 -0.5556535,0.666189 -1.0428303,0.884703 v 5.29e-4 c -0.2516283,0.113052 -0.5720008,0.244478 -0.960665,0.394809 -3.44e-4,1.69e-4 -6.879e-4,2.38e-4 -0.00103,5.29e-4 -0.1725197,0.06901 -0.3065806,0.151432 -0.4004924,0.252698 -0.093912,0.101264 -0.1452107,0.224023 -0.1452107,0.355534 0,0.256257 0.02072,0.451088 0.069247,0.592212 0.024265,0.07056 0.055764,0.128421 0.1007689,0.172082 0.045005,0.04366 0.1061072,0.06976 0.1684652,0.06976 0.3133098,0 0.660712,-0.135022 1.0469645,-0.393774 0.3836688,-0.257019 0.7231933,-0.55008 1.0180256,-0.878499 0.293179,-0.32658 0.5208109,-0.633664 0.6826457,-0.923459 9.26e-4,-0.0016 0.0018,-0.0031 0.0026,-0.0047 l 2.5616,-5.331973 -0.148828,5.791896 c -8e-6,7.93e-4 -8e-6,0.0013 0,0.0021 0,0.09668 0.03134,0.186452 0.09302,0.255281 0.06168,0.06883 0.149148,0.115914 0.256315,0.146246 0.01971,0.0057 0.04082,0.0034 0.05891,-0.0062 0.03174,-0.01683 0.04718,-0.03584 0.06925,-0.06201 0.02207,-0.02617 0.04652,-0.05946 0.07493,-0.100769 0.05682,-0.08262 0.128492,-0.197839 0.216525,-0.346747 0.176064,-0.297817 0.416618,-0.730403 0.721921,-1.299146 0.610602,-1.137486 1.480558,-2.818786 2.610691,-5.044136 -0.0021,0.02103 -0.0047,0.04915 -0.01601,0.110069 -0.01434,0.07754 -0.03583,0.183156 -0.06511,0.316778 -1.75e-4,2.65e-4 -2.39e-4,7.94e-4 -5.3e-4,0.0011 -0.0554,0.269608 -0.134244,0.690939 -0.237193,1.264521 -0.102997,0.573833 -0.233662,1.336267 -0.391708,2.288233 -0.110818,0.672293 -0.166399,1.290389 -0.166399,1.85415 0,0.391128 0.05112,0.690401 0.165365,0.901755 0.114249,0.211355 0.304432,0.329179 0.5364,0.329179 0.323519,0 0.729485,-0.183735 1.239718,-0.535885 0.510233,-0.352152 1.123241,-0.876858 1.841749,-1.575099 0.0083,-0.0081 0.0146,-0.01804 0.0186,-0.02894 0.233741,-0.239789 0.481256,-0.481732 0.745691,-0.725022 0.171376,-0.155591 0.304803,-0.289404 0.450102,-0.429948 -0.0074,0.0167 -0.0055,0.01315 -0.01344,0.03101 v 5.29e-4 c -0.09563,0.220684 -0.184158,0.426733 -0.2651,0.618051 -0.08102,0.191497 -0.169444,0.404786 -0.265099,0.64027 -2e-6,2.65e-4 -2e-6,7.94e-4 0,0.0011 -0.09245,0.236661 -0.166788,0.448119 -0.222726,0.634587 -0.05668,0.185298 -0.0863,0.352404 -0.0863,0.502293 0,0.154956 0.04534,0.311983 0.131257,0.468188 l 5.29e-4,5.29e-4 c 0.09192,0.162949 0.247499,0.255281 0.432533,0.255281 0.180462,0 0.393232,-0.08469 0.652674,-0.240295 0.170984,-0.102552 0.371565,-0.252166 0.584459,-0.421164 l 0.219107,-0.198953 c 0.05241,0.3033 0.249648,0.534392 0.573093,0.666625 0.162933,0.0682 0.328491,0.117835 0.496094,0.148313 v 5.29e-4 c 0.169399,0.03012 0.330462,0.04496 0.482658,0.04496 0.15767,0 0.313965,-0.02127 0.467672,-0.06356 0.153281,-0.04115 0.293897,-0.08825 0.422196,-0.141078 7.93e-4,-1.62e-4 0.0013,-2.39e-4 0.0021,-5.3e-4 0.130077,-0.05739 0.279853,-0.140065 0.451136,-0.248047 0.169664,-0.106963 0.308094,-0.197402 0.415997,-0.271817 l 5.29e-4,-5.29e-4 c 0.112696,-0.07889 0.25663,-0.189568 0.433565,-0.333311 l 5.29e-4,-5.29e-4 c 0.179961,-0.143241 0.309343,-0.248248 0.388088,-0.315741 0.0815,-0.0704 0.208386,-0.182816 0.380854,-0.336931 0.384734,-0.351761 0.358992,-0.61935 0.357603,-0.952397 -6.1e-5,-0.06671 -0.07765,-0.10333 -0.129191,-0.06098 l -1.301212,1.065051 c 0.106119,-0.211439 0.179316,-0.414613 0.179316,-0.601514 0,-0.211831 -0.133157,-0.435981 -0.380339,-0.683163 l -5.29e-4,-5.29e-4 c -0.102452,-0.106114 -0.208502,-0.218236 -0.318328,-0.33538 l -0.0021,-0.0011 c -0.265769,-0.269049 -0.450501,-0.571875 -0.574125,-0.902268 0.195348,-0.01873 0.383538,-0.07261 0.555522,-0.182936 v -5.29e-4 c 0.216252,-0.140163 0.33383,-0.349708 0.33383,-0.60048 0,-0.08801 -0.05023,-0.170818 -0.12764,-0.213942 -0.07732,-0.04289 -0.175329,-0.05839 -0.298175,-0.05839 h -5.29e-4 c -0.539454,0 -0.960504,0.14818 -1.242819,0.450102 -0.278146,0.293878 -0.41806,0.671361 -0.41806,1.117245 0,0.280601 0.04933,0.541573 0.140041,0.784447 l -1.506884,1.487766 c -0.08499,0.07024 -0.163042,0.133162 -0.227378,0.180866 -0.07137,0.05293 -0.130516,0.0919 -0.174149,0.116274 -0.04363,0.02437 -0.07571,0.03049 -0.06976,0.03049 -0.02821,0 -0.03504,-0.0051 -0.04547,-0.0181 2.01e-4,-1.69e-4 -0.0011,-0.0024 -0.0031,-0.01497 -0.0028,-0.01678 -0.0063,-0.0298 -0.0098,-0.04341 v -0.04393 c 0.0013,-0.0097 0.0029,-0.01921 0.0036,-0.02582 0.0011,-0.0085 0.0016,-0.01021 0.0016,-0.02273 0,-0.08971 0.0678,-0.334462 0.211873,-0.68988 0.144077,-0.35542 0.361276,-0.830868 0.651124,-1.425236 l 5.29e-4,-5.29e-4 c 0.126995,-0.263194 0.222203,-0.466635 0.286287,-0.612365 0.03204,-0.07286 0.0561,-0.131313 0.07286,-0.176215 0.01677,-0.0449 0.02894,-0.06527 0.02894,-0.110588 0,-0.05318 -0.03951,-0.107278 -0.08475,-0.129191 -0.04524,-0.02191 -0.09478,-0.02739 -0.154512,-0.02739 -0.0031,-1.1e-5 -0.0062,1.34e-4 -0.0093,5.29e-4 l -0.65474,0.07648 c -0.33985,-2.65e-4 -0.580668,-0.05766 -0.735873,-0.15348 0.06655,-0.05909 0.127259,-0.131008 0.175702,-0.227893 v -5.29e-4 c 0.06997,-0.143823 0.107487,-0.280586 0.107487,-0.409795 0,-0.108564 -0.02244,-0.201806 -0.08062,-0.270269 -0.05818,-0.06846 -0.148331,-0.100769 -0.246496,-0.100769 -0.339215,0 -0.622784,0.104986 -0.833025,0.315227 -0.207029,0.207028 -0.315743,0.456557 -0.315743,0.733806 0,0.05791 0.02207,0.112395 0.05581,0.167431 2.2e-4,2.64e-4 2.25e-4,7.94e-4 5.29e-4,0.0011 0.134033,0.236088 0.406813,0.400894 0.7922,0.514181 l -1.02371,1.064532 c -0.553249,0.54202 -1.000922,0.948203 -1.340485,1.21698 -0.169963,0.134533 -0.31333,0.234805 -0.42685,0.299726 -0.113509,0.06492 -0.199329,0.09147 -0.238228,0.09147 -0.05609,0 -0.0865,-0.01974 -0.121954,-0.101285 -0.03545,-0.08155 -0.05788,-0.222245 -0.05788,-0.414962 0,-0.387633 0.06886,-1.050102 0.208256,-1.978176 0.139179,-0.930306 0.46091,-2.70357 0.964282,-5.315952 0.0067,-0.03487 -0.01058,-0.069961 -0.04238,-0.085783 l -0.04444,-0.022225 c -0.01169,-0.00582 -0.02466,-0.00868 -0.03772,-0.00826 z m 41.105502,0 c -0.231738,0.00815 -0.534934,0.1124929 -0.925525,0.3059244 -0.359649,0.176411 -0.586931,0.3403627 -0.711584,0.5126302 -1.91e-4,2.62e-4 -7.94e-4,2.249e-4 -0.0011,5.292e-4 -0.0066,0.00344 -0.0127,0.00778 -0.0181,0.012912 l -0.01138,0.010848 0.0031,0.00265 c -0.0013,0.00185 -0.0044,0.00376 -0.0057,0.00569 -0.0016,0.00238 -0.0029,0.00479 -0.0041,0.00722 -0.906415,1.8384545 -1.679298,3.3676885 -2.317687,4.5857685 -0.111556,0.209177 -0.178268,0.344835 -0.243914,0.479039 0.02331,-0.405233 0.05965,-1.104884 0.117306,-2.295467 v -5.29e-4 c 0.06606,-1.291706 0.163218,-2.4251813 0.291457,-3.3997925 0.0044,-0.033549 -0.01307,-0.06617 -0.04341,-0.081132 -0.02119,-0.01061 -0.0368,-0.018971 -0.04496,-0.02376 -0.0013,-7.937e-4 -5.3e-4,-5.292e-4 -0.0016,-0.00106 -0.01468,-0.014208 -0.03433,-0.022172 -0.05478,-0.022225 -0.334235,0 -0.65637,0.09307 -0.961181,0.2759525 -0.300815,0.1790488 -0.532349,0.4141364 -0.689879,0.7022835 -7.94e-4,0.00132 -0.0013,0.00273 -0.0021,0.00413 -0.253299,0.5396355 -0.757203,1.5965755 -1.510501,3.1693135 -0.748903,1.571231 -1.271805,2.6772 -1.569929,3.321244 -0.21118,0.371829 -0.555654,0.666189 -1.042831,0.884703 v 5.29e-4 c -0.251667,0.113067 -0.571503,0.244485 -0.96015,0.394808 -2.64e-4,1.7e-4 -7.93e-4,2.39e-4 -0.0011,5.3e-4 -0.172521,0.06901 -0.306581,0.151431 -0.400494,0.252698 -0.0939,0.101264 -0.145209,0.224023 -0.145209,0.355534 5e-6,0.256228 0.02088,0.450588 0.06925,0.591693 0.02418,0.07056 0.05529,0.128915 0.10025,0.172601 0.04496,0.04368 0.106109,0.06976 0.168466,0.06976 0.313309,0 0.660712,-0.135022 1.046964,-0.393774 0.383638,-0.257 0.723686,-0.550045 1.018543,-0.878498 0.293211,-0.326615 0.520332,-0.633728 0.68213,-0.92346 7.94e-4,-0.0016 0.0019,-0.0031 0.0026,-0.0047 l 2.562119,-5.333008 -0.149347,5.79293 c -8e-6,7.94e-4 -8e-6,0.0013 0,0.0021 0,0.09668 0.03134,0.186452 0.09302,0.25528 0.06167,0.06883 0.149153,0.115914 0.256312,0.146246 0.01971,0.0057 0.04082,0.0034 0.05891,-0.0062 0.03174,-0.01683 0.04718,-0.03585 0.06925,-0.06201 0.02207,-0.02617 0.04652,-0.05946 0.07493,-0.100769 0.05682,-0.08262 0.128492,-0.19784 0.216524,-0.346747 0.176065,-0.297818 0.416619,-0.730404 0.721921,-1.299147 0.610603,-1.137486 1.480561,-2.818786 2.610694,-5.044135 2.65e-4,-7.94e-4 7.94e-4,-0.0016 0.0011,-0.0026 -0.0021,0.02019 -0.0049,0.0498 -0.01654,0.112138 -0.01447,0.07757 -0.03633,0.183624 -0.06563,0.317294 -1.69e-4,2.64e-4 -2.38e-4,7.93e-4 -5.29e-4,0.0011 -0.0554,0.269605 -0.134247,0.690938 -0.237194,1.26452 -0.102996,0.573834 -0.233661,1.336268 -0.391707,2.288234 -0.110818,0.672293 -0.166399,1.290388 -0.166399,1.854149 0,0.391128 0.05111,0.690401 0.165364,0.901756 0.114253,0.211354 0.304433,0.329178 0.536403,0.329178 0.269251,0 0.595546,-0.130069 0.992188,-0.376205 0.365358,-0.226724 0.796896,-0.566132 1.282091,-0.993738 0.0051,0.07613 0.0072,0.153281 0.0181,0.227377 -6e-6,5.3e-4 -6e-6,0.0011 0,0.0016 0.05293,0.3195 0.14977,0.566716 0.299722,0.737939 0.149953,0.171222 0.355248,0.259932 0.594278,0.259932 0.374677,0 0.744374,-0.130458 1.10381,-0.383956 0.293418,-0.204779 0.54886,-0.451903 0.782381,-0.723987 -0.0096,0.103672 -0.02532,0.215347 -0.02532,0.306959 0,0.248346 0.03441,0.441275 0.115756,0.581358 0.08135,0.140084 0.22008,0.219626 0.382405,0.219626 0.113172,0 0.244022,-0.05321 0.417028,-0.147794 0.173006,-0.09458 0.384786,-0.234119 0.638204,-0.419097 v 5.29e-4 c 0.330158,-0.239244 0.672227,-0.53068 1.022678,-0.856798 -0.01561,0.147294 -0.03462,0.298175 -0.03462,0.428916 0,0.314439 0.05499,0.559435 0.1788,0.732256 0.123804,0.172818 0.319008,0.261998 0.556038,0.261998 0.277963,0 0.587639,-0.108077 0.933275,-0.314708 2.65e-4,-1.7e-4 7.94e-4,-2.44e-4 0.0011,-5.3e-4 0.136967,-0.0837 0.298842,-0.202517 0.487826,-0.358116 l 5.29e-4,-5.29e-4 c 0.191675,-0.154831 0.350541,-0.289869 0.476975,-0.405143 0.128939,-0.117888 0.303903,-0.279853 0.524515,-0.485759 l 0.0031,-0.0031 c -0.149405,0.604779 -0.273508,1.123312 -0.300241,1.318265 -0.0066,0.04742 0.03016,0.08978 0.07803,0.08992 h 0.859895 c 0.01871,5.3e-5 0.03685,-0.0065 0.05116,-0.0186 0.13136,-0.110834 0.234326,-0.273677 0.314711,-0.484208 0.07948,-0.208167 0.180663,-0.548887 0.305925,-1.027843 0.125584,-0.470017 0.362797,-0.936763 0.714169,-1.400432 0.353242,-0.464973 0.677455,-0.679545 0.962212,-0.679545 0.09157,0 0.146093,0.02156 0.179835,0.05529 0.03374,0.03374 0.0553,0.08827 0.0553,0.179834 0,0.423196 -0.146134,1.137902 -0.442867,2.127004 l -5.29e-4,5.29e-4 c -0.10318,0.350097 -0.162195,0.572614 -0.178803,0.688846 -0.01498,0.100933 -0.02273,0.171121 -0.02273,0.220659 0,0.150697 0.03104,0.27562 0.106453,0.365353 0.07541,0.08973 0.191793,0.132808 0.325046,0.132808 0.227247,0 0.504115,-0.181539 0.887282,-0.517282 0.383167,-0.33574 0.632021,-0.56987 1.212117,-1.234681 0.273421,-0.311025 0.250844,-0.53917 0.250844,-0.934177 -2.01e-4,-0.06726 -0.07899,-0.103534 -0.130225,-0.05995 -0.151808,0.129035 -0.414168,0.382069 -0.793234,0.764813 -0.186807,0.188639 -0.332674,0.330157 -0.436147,0.422714 -0.05174,0.04627 -0.09278,0.08039 -0.121442,0.101285 -0.0122,0.0089 -0.02053,0.01392 -0.02687,0.01757 -2.64e-4,-5.29e-4 -0.0031,0.0011 -0.0052,-0.0021 -0.0047,-0.0075 -0.01394,-0.03491 -0.01394,-0.08165 0,-0.245134 0.114647,-0.722932 0.348817,-1.40715 0.119729,-0.346292 0.209393,-0.625543 0.269753,-0.839226 0.06035,-0.21368 0.0925,-0.356714 0.0925,-0.454234 0,-0.225994 -0.04684,-0.406964 -0.153477,-0.534334 -0.106637,-0.127373 -0.269819,-0.189654 -0.465606,-0.189654 -0.441287,0 -0.888947,0.187746 -1.339453,0.551905 -0.308975,0.247179 -0.573952,0.533689 -0.801502,0.853694 l 1.301732,-4.7118555 c 0.01085,-0.038769 -0.0092,-0.079497 -0.04651,-0.09457 -0.06931,-0.027744 -0.153125,-0.027906 -0.299206,-0.027906 -0.141703,0 -0.285692,0.00587 -0.43098,0.017066 -0.16088,0.012383 -0.299987,0.08006 -0.40101,0.1979189 -0.17299,0.1986783 -0.327668,0.6123436 -0.501262,1.2660736 l -0.402558,1.498616 c -0.300233,1.10772 -0.530405,1.979178 -0.727088,2.736268 -0.551733,0.51934 -0.996495,0.917164 -1.321366,1.179771 -0.164415,0.132906 -0.299305,0.231982 -0.402042,0.296625 -0.102738,0.06464 -0.180221,0.0894 -0.190686,0.0894 -0.04595,0 -0.09027,-0.01344 -0.137461,-0.04238 0.0028,0.0016 -0.02024,-0.0263 -0.03307,-0.0925 -0.01299,-0.06698 -0.02016,-0.165999 -0.02016,-0.293521 0,-0.111686 0.03971,-0.361693 0.121957,-0.72812 0.08225,-0.366437 0.206375,-0.853916 0.371554,-1.46141 0.0551,-0.203864 0.09677,-0.356798 0.125055,-0.458369 0.01204,-0.04319 0.02029,-0.07227 0.02739,-0.09664 0.474289,-0.0019 0.851143,-0.02151 1.120862,-0.06305 0.140973,-0.0217 0.254696,-0.04854 0.343649,-0.08372 0.08895,-0.03518 0.157387,-0.07788 0.194818,-0.14676 l -0.0016,0.0036 0.120926,-0.198437 c 0.03345,-0.05421 -0.0077,-0.123685 -0.07132,-0.120407 l -1.565794,0.07235 c 0.110808,-0.372277 0.298821,-0.944232 0.596863,-1.796791 v -5.29e-4 c 0.04774,-0.135895 0.08394,-0.239792 0.108003,-0.312126 0.01204,-0.03622 0.02103,-0.06473 0.02739,-0.08578 0.0032,-0.01053 0.0058,-0.0191 0.0078,-0.02687 0.0019,-0.0078 0.0047,-0.0079 0.0047,-0.03101 -4.8e-5,-0.02095 -0.0084,-0.04103 -0.02326,-0.05581 l -0.02222,-0.02222 c -0.01479,-0.01484 -0.03486,-0.0232 -0.05581,-0.02326 -0.231984,0 -0.45856,0.05104 -0.677479,0.150895 h -5.29e-4 c -0.09809,0.04496 -0.189683,0.111654 -0.275953,0.197921 -0.08165,0.08165 -0.154368,0.157732 -0.218075,0.228926 -5.29e-4,7.94e-4 -0.0011,0.0013 -0.0016,0.0021 -0.06426,0.0763 -0.129019,0.17721 -0.196887,0.305405 -2.65e-4,7.94e-4 -7.94e-4,0.0013 -0.0011,0.0021 -0.06319,0.126378 -0.129772,0.268978 -0.199988,0.427879 -0.0714,0.157948 -0.189695,0.521142 -0.349847,1.049549 l -0.411861,0.03927 c -7.94e-4,-1.3e-5 -0.0019,-1.3e-5 -0.0026,0 -0.06257,0.0078 -0.113514,0.01844 -0.156581,0.03514 -0.04306,0.0167 -0.08524,0.04049 -0.105418,0.09095 -0.0013,0.0034 -0.0024,0.0068 -0.0031,0.01034 -0.0088,0.03518 -0.0083,0.06484 -0.0083,0.11834 0,0.06212 0.01879,0.122703 0.05839,0.167947 0.0011,0.0013 0.0024,0.0024 0.0036,0.0036 0.01662,0.01659 0.03358,0.03203 0.05219,0.04599 0.02371,0.01778 0.05026,0.03 0.07803,0.03927 0.0011,2.65e-4 0.0021,7.94e-4 0.0031,0.0011 0.02718,0.0078 0.05103,0.01381 0.07235,0.0181 0.02135,0.0043 0.04881,0.0085 0.08371,0.01241 0.0029,2.65e-4 0.0058,5.29e-4 0.0088,5.29e-4 h 0.09922 0.03204 c -0.07825,0.333711 -0.152371,0.642771 -0.218591,0.904338 -0.05875,0.2291 -0.13571,0.550376 -0.215492,0.887286 -0.347189,0.353695 -0.64049,0.628891 -0.867646,0.80977 -0.231074,0.183999 -0.407006,0.26665 -0.466637,0.26665 -0.02962,0 -0.03605,-0.003 -0.05375,-0.03721 -0.0177,-0.03425 -0.03256,-0.103847 -0.03256,-0.203605 0,-0.189479 0.09392,-0.747072 0.284739,-1.631424 0.06978,-0.323172 0.139536,-0.638844 0.209288,-0.947229 v -5.29e-4 c 0.03493,-0.156229 0.06158,-0.276487 0.0801,-0.36122 0.01852,-0.08473 0.02785,-0.125537 0.03152,-0.15141 0.0056,-0.03833 -0.01733,-0.07509 -0.05426,-0.08682 -0.39016,-0.122624 -0.704506,-0.185518 -0.949815,-0.185518 -0.485222,0 -0.961792,0.103296 -1.426784,0.309541 -0.459708,0.20556 -0.857559,0.472334 -1.191659,0.798918 -0.329568,0.325826 -0.596122,0.697314 -0.798402,1.11311 -0.09934,0.204197 -0.170793,0.408014 -0.221691,0.611333 -0.365792,0.337301 -0.671375,0.597357 -0.906405,0.768429 -0.238365,0.1735 -0.416835,0.251664 -0.476972,0.251664 -0.0561,0 -0.08651,-0.01974 -0.121957,-0.101285 -0.03545,-0.08155 -0.05788,-0.222245 -0.05788,-0.414962 0,-0.387631 0.06886,-1.050103 0.208257,-1.978176 0.139176,-0.930307 0.460912,-2.703571 0.964281,-5.3159528 0.0066,-0.034573 -0.01048,-0.069339 -0.04186,-0.085267 l -0.04393,-0.022225 c -0.0118,-0.00609 -0.02495,-0.00913 -0.03824,-0.00878 z m 20.904666,0.336415 c -0.927698,0 -1.743668,0.2246974 -2.440676,0.674378 v -5.292e-4 c -0.667543,0.4288715 -1.199081,0.9791095 -1.591119,1.6474465 -0.575736,0.973325 -0.865063,1.985902 -0.865063,3.03289 0,0.731284 0.153717,1.389708 0.46147,1.971455 -3e-6,2.65e-4 -3e-6,7.94e-4 0,0.0011 0.54034,1.001864 1.406424,1.513086 2.561085,1.513084 1.341686,0 2.766107,-0.711502 4.273124,-2.103747 0.01275,-0.0039 0.02432,-0.01106 0.03359,-0.02066 0.241364,-0.248677 0.49914,-0.499385 0.773597,-0.751893 0.171193,-0.155424 0.30476,-0.289002 0.450101,-0.429432 -0.0073,0.01648 -0.0056,0.01289 -0.01344,0.03049 v 5.3e-4 c -0.09563,0.220683 -0.184158,0.426733 -0.2651,0.61805 -0.08102,0.191498 -0.169434,0.404786 -0.265099,0.640271 -3e-6,2.64e-4 -3e-6,7.94e-4 0,0.0011 -0.09245,0.236662 -0.166791,0.44812 -0.222726,0.634587 -0.05668,0.185299 -0.0863,0.352404 -0.0863,0.502293 0,0.154954 0.04534,0.311984 0.131257,0.468188 l 5.29e-4,5.3e-4 c 0.09191,0.162949 0.247496,0.25528 0.43253,0.25528 0.216996,0 0.481899,-0.120401 0.816488,-0.343649 0.303983,-0.202824 0.67142,-0.505923 1.088306,-0.885216 0.005,0.07668 0.0071,0.154321 0.0181,0.228925 -5e-6,5.3e-4 -5e-6,0.0011 0,0.0016 0.05294,0.319519 0.150154,0.566727 0.300239,0.737941 0.150087,0.171212 0.355237,0.259932 0.59428,0.259932 0.3746,0 0.742871,-0.129976 1.102257,-0.383439 0.293481,-0.204825 0.549865,-0.451766 0.783932,-0.723987 -0.0097,0.103856 -0.02582,0.215609 -0.02582,0.307475 0,0.24829 0.03414,0.440967 0.115239,0.580842 0.08109,0.139877 0.219663,0.219109 0.381887,0.219109 0.113091,0 0.244266,-0.05282 0.417547,-0.147277 0.173281,-0.09446 0.385265,-0.234096 0.63872,-0.419098 v 5.29e-4 c 0.25832,-0.187187 0.526447,-0.419097 0.796851,-0.659907 -0.06581,0.37969 -0.12436,0.73847 -0.139526,0.982884 -0.0027,0.04548 0.03351,0.08382 0.07906,0.08372 h 1.05265 c 0.03607,-2.7e-5 0.06754,-0.02447 0.07648,-0.05943 0.130778,-0.515874 0.353247,-1.141402 0.668176,-1.87379 h 5.29e-4 c 0.166933,-0.39193 0.364442,-0.744825 0.592211,-1.059365 0.228974,-0.314838 0.45646,-0.520078 0.676445,-0.622702 0.0344,-0.01098 0.07162,-0.01757 0.113689,-0.01757 0.02114,0 0.05221,0.01251 0.09508,0.06149 l 0.0016,0.0016 c 0.02988,0.032 0.05581,0.105251 0.05581,0.227375 0,0.04594 -0.02074,0.168177 -0.06511,0.344164 -0.04437,0.175988 -0.111226,0.410414 -0.20102,0.701768 -0.302387,0.984626 -0.455787,1.719532 -0.455787,2.217436 -2.4e-5,0.04367 0.03539,0.07909 0.07906,0.07906 h 1.058333 c 0.03543,-7.2e-5 0.06648,-0.02373 0.07597,-0.05787 0.138644,-0.492567 0.323001,-1.022525 0.553455,-1.589569 l 5.3e-4,-5.3e-4 c 0.149685,-0.357724 0.301021,-0.676579 0.453718,-0.956529 l 5.29e-4,-5.29e-4 c 0.151532,-0.281414 0.321791,-0.521915 0.51108,-0.721919 0.188256,-0.198908 0.343545,-0.283704 0.444415,-0.283704 0.127847,0 0.205409,0.03355 0.258384,0.09767 0.06012,0.07278 0.08682,0.145232 0.08682,0.225827 0,0.352875 -0.124238,0.813036 -0.378788,1.373042 -0.256656,0.569119 -0.387572,1.075354 -0.387572,1.520838 0,0.170548 0.02719,0.306734 0.09508,0.407726 0.06789,0.100994 0.181552,0.156064 0.309541,0.156064 0.120891,0 0.256265,-0.06115 0.431499,-0.170016 0.175236,-0.108868 0.387564,-0.269327 0.639238,-0.482142 0.501793,-0.424307 0.793507,-0.679138 1.254644,-1.155036 0.21994,-0.253095 0.211936,-0.515117 0.211936,-0.868095 -7.4e-5,-0.07035 -0.08512,-0.105537 -0.134876,-0.05581 l -0.29197,0.292489 c -0.113837,0.113831 -0.205997,0.205475 -0.275953,0.275436 -0.07023,0.06656 -0.148749,0.143584 -0.236678,0.231511 -0.08746,0.08382 -0.158522,0.151304 -0.212907,0.202054 -0.05367,0.04646 -0.109379,0.09278 -0.166915,0.139525 -0.05147,0.04114 -0.09443,0.07072 -0.128157,0.0894 -0.01878,0.0083 -0.03337,0.009 -0.04909,0.01188 -0.0013,-0.0085 -0.0026,-0.0089 -0.0026,-0.02326 3e-6,-0.04982 0.03683,-0.210272 0.11679,-0.442867 v -5.29e-4 c 0.288213,-0.849882 0.434081,-1.539558 0.434081,-2.075842 0,-0.292518 -0.05195,-0.521491 -0.169498,-0.683162 -0.117551,-0.161671 -0.302707,-0.24443 -0.526584,-0.24443 -0.250775,0 -0.51054,0.07462 -0.776695,0.219107 -0.26452,0.1436 -0.509355,0.330422 -0.734841,0.559657 l -5.29e-4,5.29e-4 c -0.307512,0.317762 -0.556088,0.654209 -0.777729,0.999421 0.09045,-0.350001 0.152969,-0.645715 0.152961,-0.828889 0,-0.26063 -0.03562,-0.47684 -0.11162,-0.649055 v -5.29e-4 c -0.07769,-0.179567 -0.219395,-0.289388 -0.392224,-0.289388 -0.438435,0 -0.873188,0.193728 -1.299146,0.567926 -0.318069,0.279418 -0.632714,0.693883 -0.946711,1.175123 0.04246,-0.132985 0.04942,-0.16015 0.110585,-0.349335 v -5.29e-4 c 0.162065,-0.489966 0.269785,-0.864248 0.322461,-1.12758 0.0098,-0.04893 -0.02761,-0.09459 -0.07752,-0.09457 -0.380312,0 -0.649645,0.01558 -0.820102,0.05116 -0.171228,0.03261 -0.306814,0.120806 -0.384474,0.258898 -0.197059,0.317005 -0.397391,0.967409 -0.625285,1.978176 v 5.29e-4 c -0.02249,0.100997 -0.04075,0.188277 -0.06046,0.28112 -0.286258,0.28176 -0.529739,0.501134 -0.718818,0.643887 -0.193529,0.146113 -0.34064,0.210325 -0.394808,0.210325 -0.0295,0 -0.03643,-0.0033 -0.05426,-0.03772 -0.01783,-0.03443 -0.03256,-0.103913 -0.03256,-0.203605 0,-0.189489 0.09391,-0.747599 0.284739,-1.631942 0.06974,-0.323133 0.139526,-0.63777 0.209288,-0.946198 v -5.29e-4 c 0.03475,-0.156191 0.06147,-0.27681 0.0801,-0.361735 0.01863,-0.08492 0.02832,-0.127501 0.03204,-0.151411 0.0059,-0.03851 -0.01712,-0.07558 -0.05426,-0.08733 -0.39029,-0.12266 -0.706173,-0.185002 -0.951362,-0.185002 -0.485175,0 -0.96175,0.102759 -1.426787,0.309026 -0.459777,0.205592 -0.857105,0.472906 -1.191141,0.799436 -0.329599,0.325845 -0.596141,0.697851 -0.798401,1.113626 -0.111827,0.229859 -0.188757,0.458665 -0.238745,0.686263 -0.111466,0.105386 -0.230071,0.215759 -0.365352,0.335896 -0.243229,0.215786 -0.437131,0.377373 -0.579811,0.483174 -0.07138,0.05293 -0.130516,0.0919 -0.174148,0.116274 -0.04363,0.02437 -0.0757,0.03049 -0.06977,0.03049 -0.02822,0 -0.03575,-0.0054 -0.04599,-0.0181 1.91e-4,-1.91e-4 -0.0011,-0.0024 -0.0031,-0.01498 -0.0028,-0.0168 -0.0063,-0.02981 -0.0098,-0.04341 v -0.04393 c 0.0013,-0.0091 0.0028,-0.01802 0.0036,-0.02429 0.0011,-0.0081 0.0021,-0.008 0.0021,-0.02429 0,-0.08976 0.06793,-0.334468 0.211873,-0.68988 0.143947,-0.355415 0.360765,-0.830876 0.650608,-1.425236 l 4.99e-4,-6.3e-4 c 0.126998,-0.263195 0.222203,-0.466635 0.286287,-0.612365 0.03204,-0.07286 0.05611,-0.131313 0.07286,-0.176215 0.01677,-0.04491 0.02894,-0.06528 0.02894,-0.110588 0,-0.05291 -0.03904,-0.107194 -0.08423,-0.129191 -0.04519,-0.02201 -0.09478,-0.02739 -0.154514,-0.02739 -0.0031,-10e-6 -0.0063,1.35e-4 -0.0093,5.29e-4 l -0.65474,0.07648 c -0.340014,-2.65e-4 -0.58111,-0.05759 -0.736389,-0.15348 0.06655,-0.05909 0.127257,-0.131008 0.1757,-0.227894 v -5.29e-4 c 0.06997,-0.143822 0.107487,-0.280585 0.107487,-0.409794 0,-0.108564 -0.02244,-0.201806 -0.08062,-0.27027 -0.05818,-0.06846 -0.148331,-0.100769 -0.246497,-0.100769 -0.339214,0 -0.622784,0.104987 -0.833024,0.315227 -0.207077,0.207077 -0.315225,0.456663 -0.315225,0.733806 3e-6,0.05719 0.02138,0.112057 0.05529,0.167431 2.19e-4,2.65e-4 2.25e-4,7.94e-4 5.29e-4,0.0011 0.134035,0.236088 0.406813,0.400894 0.792202,0.51418 l -1.007692,1.047481 c -0.579951,0.547848 -1.173012,0.970586 -1.779736,1.263488 -0.631155,0.301072 -1.224235,0.449585 -1.779735,0.449585 -0.705776,0 -1.263476,-0.239106 -1.693955,-0.722952 -0.425649,-0.486262 -0.641305,-1.155303 -0.641305,-2.020033 0,-0.865796 0.204131,-1.647828 0.612367,-2.35231 l 5.29e-4,-5.29e-4 c 0.198911,-0.347184 0.43316,-0.657958 0.703834,-0.932241 0.268981,-0.272569 0.582531,-0.492995 0.94206,-0.661977 v 5.29e-4 c 0.361497,-0.1682192 0.737888,-0.2593788 1.131197,-0.2738859 0.182036,5.292e-4 0.338751,0.1009386 0.485759,0.3327959 0.146055,0.230354 0.271222,0.588997 0.368969,1.069186 -0.0019,0.08629 -0.0785,0.204161 -0.272851,0.339514 h -5.3e-4 c -0.197241,0.139864 -0.417229,0.26231 -0.658873,0.366903 -0.32803,0.1427 -0.575717,0.272407 -0.74621,0.393774 -0.170492,0.121367 -0.276984,0.235503 -0.276984,0.373104 0,0.08786 0.02154,0.167466 0.07545,0.224274 0.05391,0.05681 0.133027,0.08113 0.218594,0.08113 0.0319,3e-6 0.04838,-0.0075 0.07389,-0.01654 0.02551,-0.0091 0.05544,-0.02135 0.09199,-0.03772 0.07308,-0.03274 0.170717,-0.08094 0.294555,-0.144695 0.247582,-0.127463 0.598901,-0.317905 1.054717,-0.57154 0.650187,-0.356319 1.059754,-0.576109 1.220597,-0.65474 5.29e-4,-1.67e-4 0.0011,-2.44e-4 0.0016,-5.3e-4 0.189331,-0.09677 0.290939,-0.283194 0.290939,-0.516763 0,-0.513056 -0.20447,-0.972211 -0.602549,-1.3627068 C 81.357442,9.2421482 80.86714,9.043597 80.301424,9.043597 Z m 8.766907,4.3227333 -0.604615,2.584339 c -0.17662,0.185346 -0.372636,0.356357 -0.590661,0.51108 l -5.29e-4,5.29e-4 c -0.21722,0.156683 -0.393398,0.226859 -0.520383,0.226859 -0.159832,0 -0.262437,-0.05365 -0.339513,-0.171564 -0.07708,-0.117914 -0.122473,-0.310277 -0.122473,-0.577225 0,-0.370938 0.104651,-0.755907 0.316775,-1.158587 0.211677,-0.401831 0.496541,-0.738698 0.858864,-1.014926 0.327808,-0.249904 0.66072,-0.378251 1.002522,-0.400492 z m -25.730728,5.29e-4 -0.603581,2.583305 c -0.176559,0.185226 -0.373052,0.355764 -0.591177,0.510563 l -5.29e-4,5.3e-4 c -0.217144,0.15663 -0.395126,0.227377 -0.521931,0.227377 -0.159909,0 -0.262196,-0.05344 -0.338997,-0.171048 -0.0768,-0.11761 -0.121957,-0.309697 -0.121957,-0.576709 0,-0.371078 0.103674,-0.756539 0.315743,-1.159103 0.211616,-0.401717 0.498041,-0.73918 0.860412,-1.015442 0.327758,-0.249875 0.660191,-0.377362 1.002006,-0.39946 z m -39.811007,2.05104 c 0.253547,0.341817 0.615198,0.769598 0.673346,1.0728 0.126933,0.661932 -0.733534,0.771856 -1.241785,0.370004 -0.59377,-0.469468 0.08367,-0.978551 0.568439,-1.442804 z m 3.274737,1.237649 c -0.137382,0 -0.276066,0.05785 -0.358119,0.120407 -0.173649,0.132392 -0.362019,0.511561 -0.0894,0.751892 0.127833,0.112689 0.334296,0.133882 0.58756,-0.02273 0.33232,-0.205531 0.263843,-0.611804 0.208775,-0.698148 -0.104286,-0.128133 -0.2233,-0.151424 -0.348816,-0.151424 z"
       sodipodi:nodetypes="ccccccccccccccccccccccccccssssssscccccsccsssscsccscssssccccccscccsccsscccccscccscccccccccssccccccscsscsccssccccccssccscssccccccsssssccccssssscccccccsccccccccccccscccccccccccssssssscccccsccssssccsccscsssscccssccsssscccssssccccccccccsccssscccsssscccsssccscssssccccssccccssscssscscsscccccccsscccccccsccccccccsccsccsccsccccccsssscccsccsccscsssscccccscccsccsccccccscccsccsscccssccsssscccccccccccsccsscccccccccsssscsssssscccccccccsccsssssscsccssccccccccccsssssccsccsccsccsscccccsssccssssscccccssssscccccscsccscccsccccssssssscccsssccccssssscccccsssssccsscssscssssccs" />
    <path
       sodipodi:nodetypes="ccsccssccscscsccsscccscccscccccccccssscccccscscssc"
       d="m 43.753097,10.2796 c -0.05113,-0.006 -0.10178,-0.0058 -0.150379,0.0021 -0.527706,0.557385 -0.548775,0.699474 -0.807701,1.275374 -0.129889,0.288901 -0.310227,0.764685 -0.373105,0.951878 0.150082,0.0065 0.425109,0.0824 0.713134,0.08165 0.349726,-0.29948 0.647578,-0.634506 0.901237,-0.955498 0.253659,-0.320993 0.559022,-0.616204 0.495062,-0.859896 -0.02904,-0.11062 -0.420322,-0.453631 -0.778248,-0.495578 z m 1.81746,2.208652 c -0.539708,0 -0.960927,0.14808 -1.243335,0.450102 -0.278146,0.293878 -0.418063,0.671361 -0.418063,1.117245 0,0.280601 0.04933,0.54157 0.140044,0.784447 -0.06263,0.07509 -0.162394,0.1856 -0.321427,0.351401 -0.172979,0.180335 -0.324088,0.340408 -0.453202,0.480589 l -0.0011,0.0011 c -0.129006,0.144179 -0.247648,0.310364 -0.356569,0.49816 -0.111048,0.191466 -0.170532,0.367363 -0.170532,0.530201 0,0.386204 0.207997,0.677942 0.588595,0.833541 0.162933,0.0682 0.328491,0.117835 0.496094,0.148312 v 5.29e-4 c 0.169399,0.03011 0.330462,0.04496 0.482658,0.04496 0.157671,0 0.313965,-0.02127 0.467672,-0.06356 0.153281,-0.04115 0.293897,-0.08825 0.422196,-0.141078 7.94e-4,-1.62e-4 0.0013,-2.52e-4 0.0021,-5.29e-4 0.130077,-0.05739 0.279852,-0.140065 0.451135,-0.248047 0.169664,-0.106963 0.308094,-0.197403 0.415997,-0.271817 l 5.29e-4,-5.29e-4 c 0.112697,-0.07889 0.25663,-0.189569 0.433565,-0.333312 l 5.29e-4,-5.29e-4 c 0.179962,-0.14324 0.30934,-0.248245 0.388088,-0.315741 0.0815,-0.0704 0.208389,-0.182816 0.380857,-0.336931 0.384733,-0.351761 0.35899,-0.619349 0.3576,-0.952396 -6e-5,-0.06671 -0.07765,-0.103333 -0.12919,-0.06098 l -1.301732,1.065051 c 0.106122,-0.211439 0.179319,-0.414613 0.179319,-0.601514 0,-0.211831 -0.13512,-0.434033 -0.380339,-0.683162 l -5.29e-4,-5.29e-4 c -0.102452,-0.106114 -0.208502,-0.218237 -0.318328,-0.335381 -5.29e-4,-2.65e-4 -0.0011,-7.94e-4 -0.0016,-0.0011 -0.265769,-0.26905 -0.450501,-0.571876 -0.574125,-0.902269 0.195347,-0.01873 0.383537,-0.07261 0.555522,-0.182936 v -5.29e-4 c 0.216252,-0.140163 0.33383,-0.349705 0.33383,-0.60048 0,-0.08801 -0.05023,-0.170817 -0.12764,-0.213942 -0.07744,-0.04296 -0.175581,-0.05835 -0.298691,-0.05835 z m -1.210263,2.929552 c 0.253548,0.341817 0.615199,0.769598 0.673344,1.0728 0.126934,0.661932 -0.733534,0.771856 -1.241785,0.370004 -0.59377,-0.469468 0.08367,-0.978548 0.568441,-1.442804 z"
       inkscape:label="path1075"
       style="font-style:normal;font-variant:normal;font-weight:normal;font-stretch:normal;font-size:11.2889px;font-family:Norican;-inkscape-font-specification:Norican;fill:#000000;fill-opacity:1;stroke-width:0.409051"
       id="path1307" />
  </g>
</svg>
